# xmcd CD database file
#
# Track frame offsets:
#	150
#	11732
#	32805
#	47602
#
# Disc length: 810 seconds
#
# Revision: 1
# Processed by: cddbd v1.5.2PL0 Copyright (c) Steve Scherf et al.
# Submitted via: CDex 1.70beta2
#
DISCID=29032804
DTITLE=YOUNG PUNCH - PENPALS - YOUNG PUNCH/PENPALS
DYEAR=2000
DGENRE=Punk Rock
TTITLE0=NEO KIDS/YOUNG PANCH
TTITLE1=SWING&RUN/YOUNG PANCH
TTITLE2=I'M NOT DOWN/PENPALS
TTITLE3=NO ROCK'N'ROLL RADIO/PENPALS
EXTD=YEAR: 2000
EXTT0=
EXTT1=
EXTT2=
EXTT3=
PLAYORDER=
